<?xml version="1.0" standalone="no"?>
<!DOCTYPE svg PUBLIC "-//W3C//DTD SVG 20010904//EN"
 "http://www.w3.org/TR/2001/REC-SVG-20010904/DTD/svg10.dtd">
<svg version="1.0" xmlns="http://www.w3.org/2000/svg"
 width="256.000000pt" height="256.000000pt" viewBox="0 0 256.000000 256.000000"
 preserveAspectRatio="xMidYMid meet">

<g transform="translate(0.000000,256.000000) scale(0.100000,-0.100000)"
fill="#000000" stroke="none">
<path d="M1071 2474 c-483 -81 -879 -457 -986 -935 -26 -116 -31 -337 -10
-459 84 -502 471 -899 972 -996 117 -23 329 -23 446 0 237 46 440 151 616 321
246 238 371 530 371 870 0 448 -227 836 -622 1062 -221 127 -529 180 -787 137z
m425 -108 c362 -78 670 -335 804 -669 65 -162 74 -214 74 -417 0 -170 -2 -193
-27 -285 -145 -537 -671 -894 -1212 -821 -495 66 -876 431 -961 921 -23 130
-15 328 19 458 52 198 158 377 307 521 168 162 354 258 585 301 98 18 308 14
411 -9z"/>
<path d="M1125 2273 c-96 -15 -220 -55 -308 -99 -139 -70 -296 -210 -380 -337
-289 -437 -200 -1022 206 -1343 319 -251 730 -292 1089 -107 93 48 191 118
247 177 l35 36 -73 0 c-68 0 -76 -2 -111 -33 -226 -192 -597 -247 -892 -131
-175 68 -339 206 -436 368 -90 148 -132 298 -132 471 0 189 47 346 149 502
158 238 413 384 703 400 216 12 404 -44 583 -173 75 -53 80 -55 136 -53 33 1
59 5 59 9 0 3 -21 26 -47 51 -123 118 -253 189 -438 241 -69 19 -318 33 -390
21z"/>
<path d="M1132 2070 c-137 -25 -318 -118 -407 -209 l-39 -41 72 0 c66 0 76 3
119 34 82 58 172 95 276 115 l47 8 0 -460 0 -461 -36 69 c-100 195 -158 302
-172 318 -12 13 -31 17 -88 17 -68 0 -74 -2 -79 -22 -3 -13 -4 -149 -3 -303
l3 -280 50 0 50 0 3 230 3 230 103 -200 c58 -110 118 -217 135 -237 l31 -37 0
-175 0 -176 70 0 70 0 2 325 3 324 91 -142 91 -142 63 0 c38 0 65 5 67 11 2 6
-42 80 -97 164 l-101 152 84 112 c108 143 113 152 88 166 -27 14 -84 13 -103
-2 -9 -7 -55 -69 -102 -137 l-86 -124 0 390 0 390 53 -8 c29 -5 80 -18 112
-29 60 -21 189 -92 200 -110 3 -6 41 -10 82 -10 l77 0 -30 31 c-74 79 -223
164 -346 199 -84 24 -273 34 -356 20z"/>
<path d="M2097 1749 c-43 -25 -61 -133 -32 -189 21 -41 84 -60 120 -36 35 23
47 60 43 130 -4 49 -9 63 -32 83 -29 24 -69 29 -99 12z m86 -27 c26 -28 31
-111 10 -152 -10 -19 -25 -35 -33 -35 -35 0 -51 91 -29 168 11 40 27 47 52 19z"/>
<path d="M1878 1739 c-10 -5 -18 -17 -18 -25 0 -12 4 -12 25 2 14 9 32 13 41
10 21 -8 12 -35 -37 -110 -40 -62 -48 -91 -26 -98 6 -3 42 -3 79 0 74 5 84 22
12 22 -48 0 -55 8 -25 27 11 7 32 33 46 58 42 71 20 125 -52 125 -15 0 -36 -5
-45 -11z"/>
<path d="M1894 990 c-24 -9 -39 -28 -31 -36 3 -3 17 2 32 12 59 38 51 -25 -14
-120 -17 -25 -31 -54 -31 -65 0 -20 6 -21 80 -21 47 0 80 4 80 10 0 6 -22 10
-50 10 -27 0 -50 4 -50 8 0 4 16 23 35 42 64 62 68 138 9 160 -29 12 -32 12
-60 0z"/>
<path d="M2065 990 c-11 -17 3 -24 19 -11 8 7 20 10 26 6 18 -11 11 -38 -17
-67 -19 -20 -23 -29 -12 -32 8 -2 22 -7 32 -10 19 -6 23 -46 7 -77 -11 -20
-45 -26 -55 -9 -4 6 -11 8 -16 4 -21 -12 14 -34 55 -34 32 0 48 6 66 25 30 32
31 83 3 102 -19 13 -20 17 -7 41 11 22 11 30 0 47 -15 23 -89 34 -101 15z"/>
</g>
</svg>
